<?xml version="1.0" encoding="UTF-8"?>
<svg width="114px" height="114px" viewBox="0 0 114 114" version="1.1" xmlns="http://www.w3.org/2000/svg" xmlns:xlink="http://www.w3.org/1999/xlink">
    <!-- Generator: Sketch 55.2 (78181) - https://sketchapp.com -->
    <title>Group 2</title>
    <desc>Created with Sketch.</desc>
    <g id="Page-1" stroke="none" stroke-width="1" fill="none" fill-rule="evenodd">
        <g id="Artboard" transform="translate(-8.000000, -33.000000)">
            <g id="Group-2" transform="translate(13.000000, 38.000000)">
                <g id="Group" transform="translate(21.955556, 19.644444)"></g>
                <circle id="Oval" stroke="#000000" stroke-width="9.0091008" fill="#000000" cx="52" cy="52" r="52"></circle>
                <path d="M41.5079663,39.2769909 L41.7617052,42.5075618 L38.5273723,42.3074061 C35.0837101,42.0942962 31.6406,41.7153698 28.1983283,41.1707254 C27.9284374,41.1280226 27.6537673,41.1248382 27.3829589,41.1612724 C25.8419681,41.3685952 24.7608188,42.7858816 24.9681451,44.3268742 C26.1383988,53.0251483 26.7249839,59.1711434 26.7249839,62.8462954 C26.7249839,66.2403162 26.2281429,70.9189664 25.2409959,76.9263689 C25.1943455,77.2102656 25.1914869,77.4996358 25.2325198,77.7843988 C25.4542785,79.3233753 26.8816364,80.3911913 28.420613,80.1694325 C35.9039211,79.0911258 41.2803183,78.5500243 44.6266559,78.5500243 C47.9944626,78.5500243 53.6348249,79.0990921 61.6320455,80.1942837 C61.9155964,80.233115 62.2034106,80.2284838 62.4855653,80.1805496 C64.0184762,79.9201293 65.0500317,78.4663488 64.7896081,76.9334363 C64.0265907,72.44209 63.6324476,67.9029594 63.607182,63.3175621 L63.5899669,60.1932252 L66.6992205,60.5003399 C69.4665363,60.7736799 72.783821,61.1753506 76.6542677,61.7053948 C76.9378186,61.7442261 77.2256328,61.7395949 77.5077876,61.6916607 C79.0406985,61.4312404 80.0722539,59.9774599 79.8118303,58.4445474 C79.0226775,53.7993603 78.6281063,49.1030877 78.6281063,44.3574065 C78.6281063,38.95077 79.1403089,32.8035372 80.1612512,25.9093547 C80.2028471,25.628467 80.2017102,25.3429029 80.1578791,25.0623553 C79.9178668,23.5261224 78.4779341,22.4753262 76.9417026,22.7153355 C71.3585429,23.5876166 65.773436,24.0239093 60.1876562,24.0239093 C54.5308148,24.0239093 48.8746723,23.5764451 43.2205505,22.6818365 C42.9506596,22.6391337 42.6759895,22.6359493 42.4051811,22.6723835 C40.8641903,22.8797063 39.783041,24.2969927 39.9903673,25.8379853 C40.7299181,31.3349262 41.2357841,35.8116015 41.5079663,39.2769909 Z" id="Combined-Shape" stroke="#FFFFFF" stroke-width="5.630688" fill="#FFFFFF"></path>
            </g>
        </g>
    </g>
</svg>