<?xml version="1.0" encoding="UTF-8"?>
<svg width="78px" height="78px" viewBox="0 0 78 78" version="1.1" xmlns="http://www.w3.org/2000/svg" xmlns:xlink="http://www.w3.org/1999/xlink">
    <!-- Generator: Sketch 55.1 (78136) - https://sketchapp.com -->
    <title>Artboard</title>
    <desc>Created with Sketch.</desc>
    <g id="Artboard" stroke="none" stroke-width="1" fill="none" fill-rule="evenodd">
        <g id="Group-2" transform="translate(3.000000, 3.000000)" stroke="#FFFFFF">
            <circle id="Oval" stroke-width="6.4" fill-opacity="0.45" fill="#000000" cx="36" cy="36" r="36"></circle>
            <g id="Group" transform="translate(15.200000, 13.600000)" fill="#FFFFFF" stroke-width="4">
                <path d="M13.5870437,13.5877761 L13.767298,15.8827503 L11.4696513,15.7405612 C9.12784898,15.5956395 6.78642259,15.3400325 4.44556494,14.9738058 C4.25520197,14.9440235 4.06153425,14.9419062 3.87056565,14.9675193 C2.77580493,15.114351 2.00735245,16.1208638 2.15417739,17.215621 C2.95258036,23.168424 3.35282761,27.3805214 3.35282761,29.9089737 C3.35282761,32.2366377 3.01599635,35.4333742 2.3469219,39.529804 C2.31413935,39.7305161 2.31216188,39.9350544 2.3410577,40.1363628 C2.49799929,41.2297279 3.51157208,41.9888478 4.60493809,41.8319042 C9.71684023,41.0981419 13.3957559,40.7298704 15.6953772,40.7298704 C18.0109432,40.7298704 21.872448,41.1039624 27.3388794,41.8500311 C27.5384869,41.8772739 27.7410649,41.874202 27.9397546,41.8409193 C29.0291466,41.6584342 29.7643394,40.6273746 29.5818532,39.537982 C29.0677605,36.4689727 28.8020854,33.3678064 28.7848265,30.2355159 L28.772597,28.0160095 L30.9813882,28.2341816 C32.8653656,28.4202704 35.1171373,28.6922109 37.7388794,29.0500311 C37.9384869,29.0772739 38.1410649,29.074202 38.3397546,29.0409193 C39.4291466,28.8584342 40.1643394,27.8273746 39.9818532,26.737982 C39.4498988,23.5623425 39.1839271,20.3522921 39.1839271,17.1089737 C39.1839271,13.3984449 39.5320933,9.18506517 40.2260181,4.4644342 C40.2550803,4.26672963 40.2543492,4.06578591 40.2238491,3.86829806 C40.0552567,2.77666496 39.0336453,2.02839645 37.9420091,2.19699521 C34.1185105,2.78749814 30.2936748,3.08285287 26.4683774,3.08285287 C22.5933236,3.08285287 18.7187498,2.77976474 14.8455649,2.17380579 C14.655202,2.14402354 14.4615343,2.14190616 14.2705656,2.16751929 C13.1758049,2.31435099 12.4073525,3.32086375 12.5541774,4.41562102 C13.0564586,8.16057321 13.4007484,11.2158881 13.5870437,13.5877761 Z" id="Combined-Shape"></path>
            </g>
        </g>
    </g>
</svg>