<?xml version="1.0" encoding="UTF-8"?>
<svg width="163px" height="163px" viewBox="0 0 163 163" version="1.1" xmlns="http://www.w3.org/2000/svg" xmlns:xlink="http://www.w3.org/1999/xlink">
    <!-- Generator: Sketch 55 (78076) - https://sketchapp.com -->
    <title>Group 2</title>
    <desc>Created with Sketch.</desc>
    <g id="Page-1" stroke="none" stroke-width="1" fill="none" fill-rule="evenodd">
        <g id="Artboard" transform="translate(-34.000000, -50.000000)" stroke="#FFFFFF">
            <g id="Group-2" transform="translate(41.000000, 57.000000)">
                <g id="Group" transform="translate(31.455556, 28.144444)" stroke-width="8.04384">
                    <path d="M28.0010224,28.1283067 L28.3635066,32.743408 L23.743031,32.4574714 C18.7996791,32.1515536 13.8571194,31.6071242 8.91576361,30.8243249 C8.52990373,30.7631978 8.13719627,30.7586163 7.75001533,30.8107247 C5.54861556,31.1069983 4.00420714,33.1317615 4.30048313,35.3331625 C5.97978806,47.8108898 6.82152158,56.6259847 6.82152158,61.8949595 C6.82152158,66.7625548 6.1080685,73.4752759 4.69050998,82.0963166 C4.62378757,82.5020964 4.61969216,82.9157091 4.67836656,83.3227305 C4.99529573,85.5212522 7.0344701,87.0465825 9.23299345,86.7296502 C19.9699847,85.181853 27.6825613,84.4051729 32.4807111,84.4051729 C37.3093785,84.4051729 45.4001816,85.1931975 56.8737526,86.7650466 C57.2792294,86.8205958 57.6908096,86.8139308 58.0942752,86.7452818 C60.2840513,86.3726948 61.7571726,84.2954905 61.3845828,82.1057132 C60.2881579,75.6617809 59.7218172,69.1491757 59.6855663,62.5700759 L59.6609733,58.1067374 L64.1027642,58.5454727 C68.0747263,58.9378009 72.8376024,59.5146753 78.3959748,60.2761577 C78.8014516,60.331707 79.2130319,60.3250419 79.6164975,60.2563929 C81.8062736,59.8838059 83.2793948,57.8066016 82.9068051,55.6168243 C81.7728832,48.952514 81.2059292,42.2147939 81.2059292,35.4060706 C81.2059292,27.6526117 81.9412327,18.835843 83.4068808,8.94666269 C83.4664121,8.54498658 83.4647708,8.13661123 83.4020126,7.73542663 C83.0587132,5.54086928 81.0013747,4.04012921 78.8068165,4.3834303 C70.7983395,5.63621375 62.7870704,6.26282386 54.7748365,6.26282386 C46.6609191,6.26282386 38.5480038,5.62020825 30.4379858,4.33543602 C30.052126,4.2743089 29.6594185,4.26972738 29.2722376,4.32183582 C27.0708378,4.61810944 25.5264294,6.64287265 25.8227054,8.84427362 C26.8844774,16.7335506 27.6105823,23.157273 28.0010224,28.1283067 Z" id="Combined-Shape"></path>
                </g>
                <circle id="Oval" stroke-width="12.870144" cx="74.5" cy="74.5" r="74.5"></circle>
            </g>
        </g>
    </g>
</svg>