<?xml version="1.0" encoding="UTF-8"?>
<svg width="61px" height="52px" viewBox="0 0 61 52" version="1.1" xmlns="http://www.w3.org/2000/svg" xmlns:xlink="http://www.w3.org/1999/xlink">
    <!-- Generator: Sketch 55.2 (78181) - https://sketchapp.com -->
    <title>Group2x</title>
    <desc>Created with Sketch.</desc>
    <g id="Page-1" stroke="none" stroke-width="1" fill="none" fill-rule="evenodd">
        <g id="Desktop" transform="translate(-486.000000, -560.000000)">
            <g id="Group-2" transform="translate(486.000000, 560.000000)">
                <g id="Group">
                    <path d="M5.875,-3.55271368e-15 C29.375,1.5 45.0416667,5.83333333 52.875,13 C60.875,21 64.625,32.25 52.875,43 C41.125,53.75 17.625,53.75 5.875,43 C-1.95833333,35.8333333 -1.95833333,21.5 5.875,-3.55271368e-15 Z" id="Rectangle" fill="#00FF8D"></path>
                    <path d="M17.875,29.1295 L17.875,21 L24.4015,21 L24.4015,28.6257 C24.4015,30.7096 25.3175,33.2057 29.6227,33.2057 C33.8592,33.2057 34.821,30.7096 34.821,28.6257 L34.821,21 L41.3246,21 L41.3246,29.1295 C41.3246,32.4271 39.7445,38.3124 30.1036,38.3124 L29.1876,38.3124 C19.2719,38.3124 17.875,32.4271 17.875,29.1295 Z" id="U" fill="#000000" fill-rule="nonzero"></path>
                </g>
            </g>
        </g>
    </g>
</svg>