<?xml version="1.0" encoding="UTF-8"?>
<svg width="427px" height="166px" viewBox="0 0 427 166" version="1.1" xmlns="http://www.w3.org/2000/svg" xmlns:xlink="http://www.w3.org/1999/xlink">
    <!-- Generator: Sketch 55.1 (78136) - https://sketchapp.com -->
    <title>Artboard</title>
    <desc>Created with Sketch.</desc>
    <g id="Artboard" stroke="none" stroke-width="1" fill="none" fill-rule="evenodd">
        <g id="Group-2" transform="translate(13.000000, 38.000000)" stroke="#000000">
            <g id="Group" transform="translate(21.955556, 19.644444)" stroke-width="5.630688">
                <path d="M19.5524108,19.6325464 L19.8061497,22.8631173 L16.5718168,22.6629617 C13.1281546,22.4498518 9.68504442,22.0709254 6.24277275,21.526281 C5.97288184,21.4835782 5.69821175,21.4803938 5.42740336,21.516828 C3.88641257,21.7241507 2.80526321,23.1414372 3.01258952,24.6824298 C4.1828432,33.3807038 4.76942832,39.526699 4.76942832,43.2018509 C4.76942832,46.5958718 4.27258732,51.2745219 3.28544033,57.2819244 C3.2387899,57.5658212 3.23593135,57.8551914 3.27696425,58.1399543 C3.49872296,59.6789309 4.92608087,60.7467469 6.46505747,60.5249881 C13.9483656,59.4466814 19.3247628,58.9055799 22.6711003,58.9055799 C26.0389071,58.9055799 31.6792693,59.4546477 39.6764899,60.5498393 C39.9600408,60.5886706 40.247855,60.5840393 40.5300098,60.5361051 C42.0629207,60.2756848 43.0944762,58.8219043 42.8340526,57.2889919 C42.0710352,52.7976456 41.676892,48.258515 41.6516264,43.6731177 L41.6344113,40.5487808 L44.7436649,40.8558955 C47.5109807,41.1292355 50.8282654,41.5309061 54.6987121,42.0609504 C54.982263,42.0997817 55.2700773,42.0951504 55.552232,42.0472162 C57.0851429,41.786796 58.1166984,40.3330154 57.8562748,38.800103 C57.067122,34.1549159 56.6725508,29.4586432 56.6725508,24.712962 C56.6725508,19.3063255 57.1847534,13.1590928 58.2056956,6.26491024 C58.2472916,5.98402256 58.2461547,5.69845841 58.2023235,5.41791084 C57.9623112,3.88167795 56.5223785,2.83088173 54.9861471,3.07089102 C49.4029874,3.94317214 43.8178804,4.37946481 38.2321007,4.37946481 C32.5752592,4.37946481 26.9191167,3.93200065 21.264995,3.03739207 C20.9951041,2.99468929 20.720434,2.9915049 20.4496256,3.02793908 C18.9086348,3.23526183 17.8274854,4.65254829 18.0348117,6.19354089 C18.7743625,11.6904818 19.2802285,16.167157 19.5524108,19.6325464 Z" id="Combined-Shape"></path>
            </g>
            <circle id="Oval" stroke-width="9.0091008" cx="52" cy="52" r="52"></circle>
        </g>
        <path d="M192.93545,113.76895 L188.8541,113.76895 C165.7856,113.76895 163.12385,103.83175 163.12385,98.03505 L163.12385,97.3844 L177.4973,97.3844 C177.67475,100.04615 179.21265,104.3641 190.56945,104.3641 L191.39755,104.3641 C202.99095,104.3641 204.29225,102.05725 204.29225,99.69125 C204.29225,97.1478 202.9318,95.55075 192.758,95.255 L185.1868,95.07755 C168.7431,94.60435 163.71535,89.04425 163.71535,82.18285 L163.71535,81.6505 C163.71535,75.08485 167.61925,68.22345 187.6711,68.22345 L191.75245,68.22345 C212.57325,68.22345 217.30525,75.4989 217.30525,82.1237 L217.30525,82.7152 L202.99095,82.7152 C202.6952,81.059 201.80795,77.45085 190.2737,77.45085 L189.3273,77.45085 C178.6803,77.45085 177.91135,79.34365 177.91135,81.23645 C177.91135,83.12925 179.09435,84.8446 188.08515,85.02205 L195.4789,85.14035 C212.0409,85.4361 218.72485,89.4583 218.72485,98.2125 L218.72485,99.0406 C218.72485,106.31605 215.05755,113.76895 192.93545,113.76895 Z M228.414235,68.9924 L242.196185,68.9924 L242.196185,102.05725 L272.776735,102.05725 L272.776735,113 L228.414235,113 L228.414235,68.9924 Z M296.66212,113 L282.88017,113 L282.88017,68.9924 L296.66212,68.9924 L296.66212,87.3289 L319.19827,68.9924 L336.70667,68.9924 L311.39047,89.1034 L337.88967,113 L319.90807,113 L296.66212,92.23835 L296.66212,113 Z M362.070806,113 L362.070806,79.4028 L343.142806,79.4028 L343.142806,68.9924 L394.958206,68.9924 L394.958206,79.4028 L375.971056,79.4028 L375.971056,113 L362.070806,113 Z" id="SLKT" fill="#000000" fill-rule="nonzero"></path>
    </g>
</svg>