<?xml version="1.0" encoding="UTF-8"?>
<svg width="60px" height="61px" viewBox="0 0 60 61" version="1.1" xmlns="http://www.w3.org/2000/svg" xmlns:xlink="http://www.w3.org/1999/xlink">
    <!-- Generator: Sketch 55.2 (78181) - https://sketchapp.com -->
    <title>Group 42x</title>
    <desc>Created with Sketch.</desc>
    <g id="Page-1" stroke="none" stroke-width="1" fill="none" fill-rule="evenodd">
        <g id="Artboard" transform="translate(-177.000000, -13.000000)">
            <g id="Group-4" transform="translate(180.000000, 15.000000)">
                <g id="Group-2" transform="translate(0.000000, 10.000000)">
                    <g id="Group" transform="translate(9.627907, 8.558140)"></g>
                    <circle id="Oval" stroke="#000000" stroke-width="4.81882136" fill="#000000" cx="23" cy="23" r="23"></circle>
                    <path d="M18.4054687,17.6242566 L18.5409479,19.3522049 L16.8110178,19.2449599 C15.5177733,19.1647866 14.2247342,19.0316352 12.9319959,18.845536 C12.7961536,18.8259805 12.6582757,18.8250869 12.5221914,18.84288 C11.6975333,18.9507043 11.1164259,19.7066297 11.2242522,20.5312888 C11.678598,24.0062 11.9065989,26.4915354 11.9065989,28.0259373 C11.9065989,29.4033541 11.7242947,31.2445142 11.3628087,33.568632 C11.340171,33.7141778 11.3390098,33.8622575 11.3593623,34.0081404 C11.4742776,34.8318338 12.2351729,35.4064152 13.0588637,35.2915051 C15.9913524,34.882387 18.1296754,34.676757 19.5094274,34.676757 C20.9049397,34.676757 23.159543,34.8875587 26.3128459,35.3074568 C26.4532639,35.3261551 26.5956178,35.3249467 26.7356982,35.3038676 C27.558116,35.180111 28.1244917,34.413086 28.0007333,33.5906673 C27.7345495,31.8217567 27.596511,30.036333 27.5866028,28.2349564 L27.5774095,26.5635256 L29.2407426,26.7281103 C30.2883821,26.8317729 31.5136458,26.9770829 32.9177096,27.16405 C33.0581276,27.1827482 33.2004816,27.1815399 33.340562,27.1604608 C34.1629798,27.0367042 34.7293555,26.2696792 34.6055971,25.4472605 C34.3291197,23.6099446 34.190892,21.7548257 34.190892,19.8825305 C34.190892,17.670925 34.3837846,15.1824968 34.7680349,12.4145109 C34.7873111,12.2756532 34.7871029,12.134784 34.7674165,11.9959839 C34.6506266,11.1725495 33.8884241,10.599701 33.0649898,10.7164909 C30.8276645,11.0338169 28.5895555,11.1925355 26.3511773,11.1925355 C24.0792775,11.1925355 21.8076592,11.0290274 19.5368597,10.7021292 C19.4010174,10.6825737 19.2631395,10.6816801 19.1270552,10.6994732 C18.3023971,10.8072975 17.7212897,11.5632229 17.829116,12.387882 C18.1049389,14.4974209 18.297063,16.2416143 18.4054687,17.6242566 Z" id="Combined-Shape" stroke="#FFFFFF" stroke-width="3.01176335" fill="#FFFFFF"></path>
                </g>
                <circle id="Oval" stroke="#FFFFFF" stroke-width="3.92" fill="#FF0000" cx="45.5" cy="9.5" r="9.5"></circle>
            </g>
        </g>
    </g>
</svg>