<?xml version="1.0" encoding="UTF-8"?>
<svg width="390px" height="342px" viewBox="0 0 390 342" version="1.1" xmlns="http://www.w3.org/2000/svg" xmlns:xlink="http://www.w3.org/1999/xlink">
    <!-- Generator: Sketch 55.1 (78136) - https://sketchapp.com -->
    <title>Artboard</title>
    <desc>Created with Sketch.</desc>
    <g id="Artboard" stroke="none" stroke-width="1" fill="none" fill-rule="evenodd">
        <g id="Group-2" transform="translate(13.000000, 16.000000)" stroke="#FFFFFF">
            <g id="Group" transform="translate(31.455556, 28.144444)" stroke-width="8.04384">
                <path d="M28.0010224,28.1283067 L28.3635066,32.743408 L23.743031,32.4574714 C18.7996791,32.1515536 13.8571194,31.6071242 8.91576361,30.8243249 C8.52990373,30.7631978 8.13719627,30.7586163 7.75001533,30.8107247 C5.54861556,31.1069983 4.00420714,33.1317615 4.30048313,35.3331625 C5.97978806,47.8108898 6.82152158,56.6259847 6.82152158,61.8949595 C6.82152158,66.7625548 6.1080685,73.4752759 4.69050998,82.0963166 C4.62378757,82.5020964 4.61969216,82.9157091 4.67836656,83.3227305 C4.99529573,85.5212522 7.0344701,87.0465825 9.23299345,86.7296502 C19.9699847,85.181853 27.6825613,84.4051729 32.4807111,84.4051729 C37.3093785,84.4051729 45.4001816,85.1931975 56.8737526,86.7650466 C57.2792294,86.8205958 57.6908096,86.8139308 58.0942752,86.7452818 C60.2840513,86.3726948 61.7571726,84.2954905 61.3845828,82.1057132 C60.2881579,75.6617809 59.7218172,69.1491757 59.6855663,62.5700759 L59.6609733,58.1067374 L64.1027642,58.5454727 C68.0747263,58.9378009 72.8376024,59.5146753 78.3959748,60.2761577 C78.8014516,60.331707 79.2130319,60.3250419 79.6164975,60.2563929 C81.8062736,59.8838059 83.2793948,57.8066016 82.9068051,55.6168243 C81.7728832,48.952514 81.2059292,42.2147939 81.2059292,35.4060706 C81.2059292,27.6526117 81.9412327,18.835843 83.4068808,8.94666269 C83.4664121,8.54498658 83.4647708,8.13661123 83.4020126,7.73542663 C83.0587132,5.54086928 81.0013747,4.04012921 78.8068165,4.3834303 C70.7983395,5.63621375 62.7870704,6.26282386 54.7748365,6.26282386 C46.6609191,6.26282386 38.5480038,5.62020825 30.4379858,4.33543602 C30.052126,4.2743089 29.6594185,4.26972738 29.2722376,4.32183582 C27.0708378,4.61810944 25.5264294,6.64287265 25.8227054,8.84427362 C26.8844774,16.7335506 27.6105823,23.157273 28.0010224,28.1283067 Z" id="Combined-Shape"></path>
            </g>
            <circle id="Oval" stroke-width="12.870144" cx="74.5" cy="74.5" r="74.5"></circle>
        </g>
        <path d="M46.0684528,327.72297 C18.0701968,327.72297 2.70705123,314.800698 2.85063203,293.407158 L30.5617264,293.407158 C30.7053072,296.853098 31.7103728,300.299037 34.438408,302.73991 C36.8792816,305.180784 40.899544,306.760173 46.7863568,306.760173 C55.8319472,306.903754 60.282952,303.027072 60.282952,296.278774 C60.282952,291.253446 56.693432,288.668992 45.7812912,286.371699 C33.2897616,283.643664 24.6749136,280.341306 19.362424,275.603139 C14.0499344,270.864973 11.7526416,264.547418 11.7526416,255.93257 C11.7526416,246.312656 15.4857424,237.841389 22.5212016,231.667414 C29.5566608,225.49344 39.8944784,221.90392 52.9603312,221.90392 C65.0211184,221.90392 74.7846128,224.488374 81.5329104,229.657283 C88.281208,234.969773 91.870728,243.010298 91.870728,253.922438 L65.0211184,253.922438 C64.4467952,246.025494 59.9957904,242.866717 52.0988464,242.866717 C44.0583216,242.866717 40.18164,246.599818 40.18164,252.199469 C40.18164,256.937635 43.3404176,259.091347 54.6833008,261.532221 C66.1697648,263.973094 74.7846128,267.275453 80.5278448,272.013619 C86.2710768,276.751786 89.1426928,283.212922 89.1426928,291.97135 C89.1426928,302.452749 85.409592,311.354758 78.0869712,317.672314 C70.7643504,323.989869 59.9957904,327.72297 46.0684528,327.72297 Z M115.670209,223.339728 L145.247854,223.339728 L132.612743,303.170653 L171.379559,303.170653 L167.790039,326 L99.4455784,326 L115.670209,223.339728 Z M199.917206,223.339728 L229.494851,223.339728 L223.033715,264.116675 L260.939046,223.339728 L292.526822,223.339728 L246.006643,272.444362 L276.589354,326 L244.857997,326 L220.30568,281.346371 L213.270221,326 L183.692576,326 L199.917206,223.339728 Z M321.782374,246.025494 L295.219926,246.025494 L298.953026,223.339728 L381.655567,223.339728 L377.922466,246.025494 L351.360018,246.025494 L338.868489,326 L309.290844,326 L321.782374,246.025494 Z" id="SLKT" fill="#FFFFFF" fill-rule="nonzero"></path>
    </g>
</svg>