<?xml version="1.0" encoding="UTF-8"?>
<svg width="232px" height="46px" viewBox="0 0 232 46" version="1.1" xmlns="http://www.w3.org/2000/svg" xmlns:xlink="http://www.w3.org/1999/xlink">
    <!-- Generator: Sketch 55.2 (78181) - https://sketchapp.com -->
    <title>SLKT2x</title>
    <desc>Created with Sketch.</desc>
    <g id="Page-1" stroke="none" stroke-width="1" fill="none" fill-rule="evenodd">
        <g id="Artboard" transform="translate(-163.000000, -68.000000)" fill="#000000" fill-rule="nonzero">
            <path d="M192.93545,113.76895 L188.8541,113.76895 C165.7856,113.76895 163.12385,103.83175 163.12385,98.03505 L163.12385,97.3844 L177.4973,97.3844 C177.67475,100.04615 179.21265,104.3641 190.56945,104.3641 L191.39755,104.3641 C202.99095,104.3641 204.29225,102.05725 204.29225,99.69125 C204.29225,97.1478 202.9318,95.55075 192.758,95.255 L185.1868,95.07755 C168.7431,94.60435 163.71535,89.04425 163.71535,82.18285 L163.71535,81.6505 C163.71535,75.08485 167.61925,68.22345 187.6711,68.22345 L191.75245,68.22345 C212.57325,68.22345 217.30525,75.4989 217.30525,82.1237 L217.30525,82.7152 L202.99095,82.7152 C202.6952,81.059 201.80795,77.45085 190.2737,77.45085 L189.3273,77.45085 C178.6803,77.45085 177.91135,79.34365 177.91135,81.23645 C177.91135,83.12925 179.09435,84.8446 188.08515,85.02205 L195.4789,85.14035 C212.0409,85.4361 218.72485,89.4583 218.72485,98.2125 L218.72485,99.0406 C218.72485,106.31605 215.05755,113.76895 192.93545,113.76895 Z M228.414235,68.9924 L242.196185,68.9924 L242.196185,102.05725 L272.776735,102.05725 L272.776735,113 L228.414235,113 L228.414235,68.9924 Z M296.66212,113 L282.88017,113 L282.88017,68.9924 L296.66212,68.9924 L296.66212,87.3289 L319.19827,68.9924 L336.70667,68.9924 L311.39047,89.1034 L337.88967,113 L319.90807,113 L296.66212,92.23835 L296.66212,113 Z M362.070806,113 L362.070806,79.4028 L343.142806,79.4028 L343.142806,68.9924 L394.958206,68.9924 L394.958206,79.4028 L375.971056,79.4028 L375.971056,113 L362.070806,113 Z" id="SLKT"></path>
        </g>
    </g>
</svg>