<?xml version="1.0" encoding="UTF-8"?>
<svg width="177px" height="19px" viewBox="0 0 177 19" version="1.1" xmlns="http://www.w3.org/2000/svg" xmlns:xlink="http://www.w3.org/1999/xlink">
    <!-- Generator: Sketch 55.2 (78181) - https://sketchapp.com -->
    <title>UNICOOM2x</title>
    <desc>Created with Sketch.</desc>
    <g id="Page-1" stroke="none" stroke-width="1" fill="none" fill-rule="evenodd">
        <g id="Desktop" transform="translate(-561.000000, -578.000000)" fill="#000000" fill-rule="nonzero">
            <g id="Group-2" transform="translate(486.000000, 560.000000)">
                <path d="M75.916,27.0919 L75.916,18.9624 L82.4425,18.9624 L82.4425,26.5881 C82.4425,28.672 83.3585,31.1681 87.6637,31.1681 C91.9002,31.1681 92.862,28.672 92.862,26.5881 L92.862,18.9624 L99.3656,18.9624 L99.3656,27.0919 C99.3656,30.3895 97.7855,36.2748 88.1446,36.2748 L87.2286,36.2748 C77.3129,36.2748 75.916,30.3895 75.916,27.0919 Z M102.7208,18.9624 L110.003,18.9624 L119.8958,28.6491 L119.8958,18.9624 L126.3536,18.9624 L126.3536,36 L119.85,36 L109.1786,25.6721 L109.1786,36 L102.7208,36 L102.7208,18.9624 Z M136.3727,18.9624 L136.3727,36 L129.892,36 L129.892,18.9624 L136.3727,18.9624 Z M152.2771,36.3206 L151.384,36.3206 C140.9187,36.3206 139.3386,30.9849 139.3386,27.756 L139.3386,27.0919 C139.3386,23.8401 140.7584,18.6418 151.384,18.6418 L152.2771,18.6418 C162.6279,18.6418 164.1393,23.3363 164.1393,25.5347 L164.1393,25.8324 L157.3838,25.8324 C157.2464,25.3744 156.7197,23.2218 151.7733,23.2218 C147.0788,23.2218 146.0712,25.3057 146.0712,27.2064 L146.0712,27.4812 C146.0712,29.3132 147.2162,31.7177 151.7962,31.7177 C156.8113,31.7177 157.3151,29.3132 157.4067,28.9239 L164.1393,28.9239 L164.1393,29.2903 C164.1393,31.5116 162.5363,36.3206 152.2771,36.3206 Z M178.8987,18.6418 L179.9292,18.6418 C190.9212,18.6418 192.341,23.8859 192.341,27.0919 L192.341,27.7789 C192.341,30.962 190.9441,36.3206 179.9292,36.3206 L178.8987,36.3206 C167.8609,36.3206 166.464,30.962 166.464,27.7789 L166.464,27.0919 C166.464,23.8859 167.8609,18.6418 178.8987,18.6418 Z M185.6084,27.5728 L185.6084,27.2522 C185.6084,25.4431 184.4405,23.2218 179.4025,23.2218 C174.2729,23.2218 173.1966,25.4431 173.1966,27.2522 L173.1966,27.527 C173.1966,29.3132 174.3645,31.7177 179.4025,31.7177 C184.4405,31.7177 185.6084,29.4048 185.6084,27.5728 Z M207.1691,18.6418 L208.1996,18.6418 C219.1916,18.6418 220.6114,23.8859 220.6114,27.0919 L220.6114,27.7789 C220.6114,30.962 219.2145,36.3206 208.1996,36.3206 L207.1691,36.3206 C196.1313,36.3206 194.7344,30.962 194.7344,27.7789 L194.7344,27.0919 C194.7344,23.8859 196.1313,18.6418 207.1691,18.6418 Z M213.8788,27.5728 L213.8788,27.2522 C213.8788,25.4431 212.7109,23.2218 207.6729,23.2218 C202.5433,23.2218 201.467,25.4431 201.467,27.2522 L201.467,27.527 C201.467,29.3132 202.6349,31.7177 207.6729,31.7177 C212.7109,31.7177 213.8788,29.4048 213.8788,27.5728 Z M223.5773,36 L223.5773,18.9624 L232.5083,18.9624 L237.7295,28.5346 L243.0423,18.9624 L251.6069,18.9624 L251.6069,36 L245.172,36 L245.172,25.3744 L239.1951,36 L235.8746,36 L229.9206,25.3744 L229.9206,36 L223.5773,36 Z" id="UNICOOM"></path>
            </g>
        </g>
    </g>
</svg>